<?xml version="1.0" standalone="no"?>
<svg xmlns:xlink="http://www.w3.org/1999/xlink" id="wave" style="transform:rotate(180deg); transition: 0.3s" viewBox="0 0 1440 100" version="1.1" xmlns="http://www.w3.org/2000/svg"><defs><linearGradient id="sw-gradient-0" x1="0" x2="0" y1="1" y2="0"><stop stop-color="rgba(228, 226, 221, 1)" offset="0%"/><stop stop-color="rgba(228, 226, 221, 1)" offset="100%"/></linearGradient></defs><path style="transform:translate(0, 0px); opacity:1" fill="url(#sw-gradient-0)" d="M0,50L30,41.7C60,33,120,17,180,13.3C240,10,300,20,360,21.7C420,23,480,17,540,26.7C600,37,660,63,720,70C780,77,840,63,900,60C960,57,1020,63,1080,56.7C1140,50,1200,30,1260,18.3C1320,7,1380,3,1440,13.3C1500,23,1560,47,1620,51.7C1680,57,1740,43,1800,46.7C1860,50,1920,70,1980,76.7C2040,83,2100,77,2160,70C2220,63,2280,57,2340,56.7C2400,57,2460,63,2520,68.3C2580,73,2640,77,2700,68.3C2760,60,2820,40,2880,40C2940,40,3000,60,3060,71.7C3120,83,3180,87,3240,83.3C3300,80,3360,70,3420,70C3480,70,3540,80,3600,78.3C3660,77,3720,63,3780,61.7C3840,60,3900,70,3960,61.7C4020,53,4080,27,4140,15C4200,3,4260,7,4290,8.3L4320,10L4320,100L4290,100C4260,100,4200,100,4140,100C4080,100,4020,100,3960,100C3900,100,3840,100,3780,100C3720,100,3660,100,3600,100C3540,100,3480,100,3420,100C3360,100,3300,100,3240,100C3180,100,3120,100,3060,100C3000,100,2940,100,2880,100C2820,100,2760,100,2700,100C2640,100,2580,100,2520,100C2460,100,2400,100,2340,100C2280,100,2220,100,2160,100C2100,100,2040,100,1980,100C1920,100,1860,100,1800,100C1740,100,1680,100,1620,100C1560,100,1500,100,1440,100C1380,100,1320,100,1260,100C1200,100,1140,100,1080,100C1020,100,960,100,900,100C840,100,780,100,720,100C660,100,600,100,540,100C480,100,420,100,360,100C300,100,240,100,180,100C120,100,60,100,30,100L0,100Z"/></svg>